# xmcd
#
# Track frame offsets: 
#        150
#        26517
#        50238
#        73553
#        94532
#        114179
#        140156
#        153770
#        181838
#        208465
#
# Disc length: 3046 seconds
#
# Revision: 0
# Processed by: cddbd v1.5.2PL0 Copyright (c) Steve Scherf et al.
# Submitted via: ExactAudioCopy v1.3
#
DISCID=890be40a
DTITLE=Jabo - Hard Times
DYEAR=2015
DGENRE=Blues
TTITLE0=Hard Times
TTITLE1=Happy Anniversary
TTITLE2=Bang Me
TTITLE3=La Blues
TTITLE4=Let Me Love You (feat. Traci)
TTITLE5=Thinking of Erica
TTITLE6=What's My Name
TTITLE7=I'm Walking on Out (Remix)
TTITLE8=A Woman Needs Love (feat. Rue Davis)
TTITLE9=Come Zydeco with Me
EXTD=
EXTT0=
EXTT1=
EXTT2=
EXTT3=
EXTT4=
EXTT5=
EXTT6=
EXTT7=
EXTT8=
EXTT9=
PLAYORDER=
